<?xml version="1.0" standalone="no"?>
<!DOCTYPE svg PUBLIC "-//W3C//DTD SVG 1.1//EN" "http://www.w3.org/Graphics/SVG/1.1/DTD/svg11.dtd">
<svg width="160px" height="160px" version="1.1" xmlns="http://www.w3.org/2000/svg" xmlns:xlink="http://www.w3.org/1999/xlink" xml:space="preserve" style="fill-rule:evenodd;clip-rule:evenodd;stroke-linejoin:round;stroke-miterlimit:1.41421;">
  <g id="cypress-logo">
      <g id="background">
          <path d="M158.44,80C158.44,36.6792 123.321,1.55979 80,1.55979C36.6792,1.55979 1.55979,36.6792 1.55979,80C1.55979,123.321 36.6792,158.44 80,158.44C123.321,158.44 158.44,123.321 158.44,80" style="fill:rgb(189,204,212);fill-rule:nonzero;"/>
      </g>
      <g id="shade">
          <path d="M143.155,33.4703C152.762,46.4876 158.44,62.5808 158.44,80C158.44,123.321 123.321,158.44 80,158.44C62.5801,158.44 46.4863,152.762 33.4697,143.155C33.9027,82.772 82.7713,33.9044 143.155,33.4703Z" style="fill:rgb(198,209,214);"/>
      </g>
      <g id="lighter" class="leaf">
          <path d="M90.0619,80C90.0619,111.93 79.5987,137.813 66.6936,137.813C53.7869,137.813 43.3238,111.93 43.3238,80C43.3238,48.0704 53.7869,22.1866 66.6936,22.1866C79.5987,22.1866 90.0619,48.0704 90.0619,80" style="fill:rgb(0,146,69);fill-rule:nonzero;"/>
      </g>
      <g id="darker" class="leaf">
          <path d="M116.677,86.2686C116.677,111.218 108.501,131.444 98.4164,131.444C88.3313,131.444 80.1561,111.218 80.1561,86.2686C80.1561,61.3193 88.3313,41.0935 98.4164,41.0935C108.501,41.0935 116.677,61.3193 116.677,86.2686" style="fill:rgb(0,104,55);fill-rule:nonzero;"/>
      </g>
  </g>
</svg>
