<?xml version="1.0" standalone="no"?>
<!DOCTYPE svg PUBLIC "-//W3C//DTD SVG 1.1//EN" "http://www.w3.org/Graphics/SVG/1.1/DTD/svg11.dtd">
<svg width="100px" height="100px" version="1.1" xmlns="http://www.w3.org/2000/svg" xmlns:xlink="http://www.w3.org/1999/xlink" xml:space="preserve" style="fill-rule:evenodd;clip-rule:evenodd;stroke-linejoin:round;stroke-miterlimit:1.41421;">
    <g>
        <g id="cypress">
            <g id="background">
                <path d="M97.927,50C97.927,23.531 76.469,2.073 50,2.073C23.531,2.073 2.073,23.531 2.073,50C2.073,76.469 23.531,97.927 50,97.927C76.469,97.927 97.927,76.469 97.927,50" style="fill:rgb(189,204,212);fill-rule:nonzero;"/>
            </g>
            <g id="shade">
                <clipPath id="tag1">
                    <path d="M2.0739,50.0008C2.0739,76.4698 23.5309,97.9268 49.9999,97.9268C76.4689,97.9268 97.9269,76.4698 97.9269,50.0008C97.9269,23.5308 76.4689,2.0738 49.9999,2.0738C23.5309,2.0738 2.0739,23.5308 2.0739,50.0008Z"/>
                </clipPath>
                <g clip-path="url(#tag1)">
                    <g opacity="0.25">
                        <path d="M156.597,89.0825C156.597,51.7955 126.37,21.5685 89.0831,21.5685C51.7961,21.5685 21.5681,51.7955 21.5681,89.0825C21.5681,126.369 51.7961,156.596 89.0831,156.596C126.37,156.596 156.597,126.369 156.597,89.0825" style="fill:rgb(230,230,230);fill-rule:nonzero;"/>
                    </g>
                </g>
            </g>
            <g id="lighter">
                <path d="M56.1478,50C56.1478,69.509 49.7548,85.324 41.8698,85.324C33.9838,85.324 27.5908,69.509 27.5908,50C27.5908,30.491 33.9838,14.676 41.8698,14.676C49.7548,14.676 56.1478,30.491 56.1478,50" style="fill:rgb(0,146,69);fill-rule:nonzero;"/>
            </g>
            <g id="darker">
                <path d="M72.4094,53.8301C72.4094,69.0741 67.4144,81.4321 61.2524,81.4321C55.0904,81.4321 50.0954,69.0741 50.0954,53.8301C50.0954,38.5861 55.0904,26.2281 61.2524,26.2281C67.4144,26.2281 72.4094,38.5861 72.4094,53.8301" style="fill:rgb(0,104,55);fill-rule:nonzero;"/>
            </g>
        </g>
    </g>
</svg>
