<?xml version="1.0" encoding="UTF-8" standalone="no"?>
<svg
   xmlns:dc="http://purl.org/dc/elements/1.1/"
   xmlns:cc="http://creativecommons.org/ns#"
   xmlns:rdf="http://www.w3.org/1999/02/22-rdf-syntax-ns#"
   xmlns:svg="http://www.w3.org/2000/svg"
   xmlns="http://www.w3.org/2000/svg"
   viewBox="0 0 1124.0707 793.67468"
   height="793.67468"
   width="1124.0707"
   xml:space="preserve"
   version="1.1"
   id="svg2"><metadata
     id="metadata8"><rdf:RDF><cc:Work
         rdf:about=""><dc:format>image/svg+xml</dc:format><dc:type
           rdf:resource="http://purl.org/dc/dcmitype/StillImage" /></cc:Work></rdf:RDF></metadata><defs
     id="defs6"><clipPath
       id="clipPath16"
       clipPathUnits="userSpaceOnUse"><path
         id="path18"
         d="m 0,595.256 843.053,0 L 843.053,0 0,0 0,595.256 Z" /></clipPath></defs><g
     transform="matrix(1.3333333,0,0,-1.3333333,0,793.67467)"
     id="g10"><g
       id="g12"><g
         clip-path="url(#clipPath16)"
         id="g14"><g
           transform="translate(340.5332,286.7954)"
           id="g20"><path
             id="path22"
             style="fill:#ffffff;fill-opacity:1;fill-rule:nonzero;stroke:none"
             d="m 0,0 c -0.48,-0.22 -1.621,-0.675 -3.217,-0.675 -3.146,0 -5.242,2.193 -5.242,5.325 0,3.329 2.369,5.565 5.633,5.565 1.342,0 2.455,-0.368 2.871,-0.651 l -0.39,-0.847 c -0.524,0.301 -1.366,0.607 -2.573,0.607 -2.943,0 -4.447,-2.129 -4.447,-4.586 0,-2.742 1.804,-4.523 4.332,-4.523 1.297,0 2.144,0.35 2.737,0.607 L 0,0 Z" /></g><g
           transform="translate(347.2559,286.0967)"
           id="g24"><path
             id="path26"
             style="fill:#ffffff;fill-opacity:1;fill-rule:nonzero;stroke:none"
             d="m 0,0 c -2.828,0 -5.018,2.112 -5.018,5.372 0,3.565 2.461,5.542 5.172,5.542 3.035,0 5.082,-2.172 5.082,-5.366 C 5.236,1.672 2.435,0 0.021,0 L 0,0 Z m 0.065,0.868 c 2.279,0 4.081,1.957 4.081,4.632 0,1.913 -1.121,4.546 -4.013,4.546 -2.805,0 -4.055,-2.371 -4.055,-4.609 0,-2.612 1.733,-4.569 3.965,-4.569 l 0.022,0 z" /></g><g
           transform="translate(355.2754,294.2695)"
           id="g28"><path
             id="path30"
             style="fill:#ffffff;fill-opacity:1;fill-rule:nonzero;stroke:none"
             d="m 0,0 c 0,0.962 -0.023,1.678 -0.092,2.504 l 1.026,0 0.068,-1.831 0.041,0 c 0.705,1.201 1.76,2.068 3.557,2.068 1.502,0 2.668,-0.956 3.15,-2.262 l 0.043,0 C 8.09,1.088 8.5,1.569 8.91,1.893 c 0.705,0.543 1.434,0.848 2.598,0.848 1.072,0 3.58,-0.563 3.58,-4.519 l 0,-6.158 -1.096,0 0,6.066 c 0,2.349 -0.958,3.744 -2.849,3.744 -1.37,0 -2.44,-0.978 -2.872,-2.069 C 8.182,-0.498 8.09,-0.842 8.09,-1.237 l 0,-6.699 -1.092,0 0,6.543 c 0,1.872 -0.936,3.267 -2.719,3.267 -1.45,0 -2.615,-1.135 -3.025,-2.347 -0.09,-0.306 -0.162,-0.658 -0.162,-1.022 l 0,-6.441 L 0,-7.936 0,0 Z" /></g><g
           transform="translate(373.9375,294.2695)"
           id="g32"><path
             id="path34"
             style="fill:#ffffff;fill-opacity:1;fill-rule:nonzero;stroke:none"
             d="m 0,0 c 0,0.962 -0.023,1.678 -0.094,2.504 l 1.026,0 0.07,-1.831 0.047,0 c 0.709,1.201 1.755,2.068 3.555,2.068 1.505,0 2.666,-0.956 3.146,-2.262 l 0.049,0 c 0.291,0.609 0.701,1.09 1.113,1.414 0.709,0.543 1.432,0.848 2.592,0.848 1.078,0 3.58,-0.563 3.58,-4.519 l 0,-6.158 -1.092,0 0,6.066 c 0,2.349 -0.956,3.744 -2.849,3.744 -1.37,0 -2.438,-0.978 -2.872,-2.069 C 8.184,-0.498 8.09,-0.842 8.09,-1.237 l 0,-6.699 -1.092,0 0,6.543 C 6.998,0.479 6.061,1.874 4.287,1.874 2.825,1.874 1.664,0.739 1.253,-0.473 1.164,-0.779 1.092,-1.131 1.092,-1.498 l 0,-6.438 L 0,-7.936 0,0 Z" /></g><g
           transform="translate(401.0332,288.8774)"
           id="g36"><path
             id="path38"
             style="fill:#ffffff;fill-opacity:1;fill-rule:nonzero;stroke:none"
             d="m 0,0 c 0,-0.911 0.023,-1.736 0.092,-2.543 l -1.027,0 -0.067,1.874 -0.049,0 c -0.546,-0.98 -1.797,-2.112 -3.739,-2.112 -1.39,0 -3.73,0.672 -3.73,4.611 l 0,6.066 1.09,0 0,-5.872 c 0,-2.264 0.729,-3.891 2.893,-3.891 1.598,0 2.762,1.062 3.24,2.108 0.11,0.328 0.199,0.743 0.199,1.15 l 0,6.505 L 0,7.896 0,0 Z" /></g><g
           transform="translate(404.7031,294.2695)"
           id="g40"><path
             id="path42"
             style="fill:#ffffff;fill-opacity:1;fill-rule:nonzero;stroke:none"
             d="m 0,0 c 0,0.963 -0.025,1.678 -0.094,2.504 l 1.026,0 0.07,-1.868 0.047,0 c 0.589,1.172 1.976,2.105 3.762,2.105 1.047,0 3.828,-0.493 3.828,-4.412 l 0,-6.265 -1.094,0 0,6.179 C 7.545,0.155 6.764,1.874 4.51,1.874 2.988,1.874 1.664,0.83 1.229,-0.539 1.162,-0.779 1.094,-1.131 1.094,-1.453 l 0,-6.483 L 0,-7.936 0,0 Z" /></g><g
           transform="translate(417.416,298.8638)"
           id="g44"><path
             id="path46"
             style="fill:#ffffff;fill-opacity:1;fill-rule:nonzero;stroke:none"
             d="m 0,0 c -0.498,0 -0.84,0.41 -0.84,0.883 0,0.48 0.385,0.918 0.889,0.918 0.5,0 0.865,-0.412 0.865,-0.918 C 0.914,0.41 0.566,0 0.023,0 L 0,0 Z m -0.498,-2.09 1.094,0 0,-10.439 -1.094,0 0,10.439 z" /></g><g
           transform="translate(429.2227,286.7954)"
           id="g48"><path
             id="path50"
             style="fill:#ffffff;fill-opacity:1;fill-rule:nonzero;stroke:none"
             d="m 0,0 c -0.482,-0.22 -1.619,-0.675 -3.213,-0.675 -3.148,0 -5.242,2.193 -5.242,5.325 0,3.329 2.371,5.565 5.631,5.565 1.341,0 2.459,-0.368 2.873,-0.653 L -0.345,8.717 c -0.524,0.301 -1.364,0.607 -2.573,0.607 -2.939,0 -4.444,-2.129 -4.444,-4.586 0,-2.742 1.8,-4.523 4.337,-4.523 1.291,0 2.132,0.35 2.731,0.607 L 0,0 Z" /></g><g
           transform="translate(438.6572,288.814)"
           id="g52"><path
             id="path54"
             style="fill:#ffffff;fill-opacity:1;fill-rule:nonzero;stroke:none"
             d="m 0,0 c 0,-0.825 0.02,-1.673 0.153,-2.48 l -0.996,0 -0.164,1.506 -0.043,0 c -0.545,-0.811 -1.753,-1.743 -3.508,-1.743 -2.214,0 -3.216,1.477 -3.216,2.873 0,2.409 2.211,3.868 6.681,3.823 l 0,0.284 c 0,1.026 -0.205,3.085 -2.801,3.066 -0.96,0 -1.966,-0.238 -2.761,-0.785 l -0.34,0.761 c 1.002,0.632 2.228,0.892 3.209,0.892 C -0.618,8.197 0,5.936 0,4.086 L 0,0 Z m -1.093,3.109 c -2.396,0.068 -5.542,-0.278 -5.542,-2.78 0,-1.501 1.052,-2.179 2.187,-2.179 1.828,0 2.875,1.064 3.239,2.091 0.09,0.217 0.116,0.455 0.116,0.629 l 0,2.239 z" /></g><g
           transform="translate(443.6924,299.0757)"
           id="g56"><path
             id="path58"
             style="fill:#ffffff;fill-opacity:1;fill-rule:nonzero;stroke:none"
             d="m 0,0 0,-2.302 3.12,0 0,-0.85 -3.12,0 0,-6.781 c 0,-1.329 0.433,-2.153 1.601,-2.153 0.564,0 0.974,0.062 1.248,0.151 l 0.134,-0.788 c -0.359,-0.127 -0.865,-0.232 -1.523,-0.232 -0.805,0 -1.46,0.232 -1.869,0.713 -0.504,0.546 -0.684,1.433 -0.684,2.501 l 0,6.589 -1.844,0 0,0.85 1.844,0 0,1.913 L 0,0 Z" /></g><g
           transform="translate(449.7305,298.8604)"
           id="g60"><path
             id="path62"
             style="fill:#ffffff;fill-opacity:1;fill-rule:nonzero;stroke:none"
             d="m 0,0 c -0.5,0 -0.842,0.413 -0.842,0.887 0,0.479 0.387,0.917 0.889,0.917 0.502,0 0.864,-0.412 0.864,-0.917 C 0.911,0.413 0.568,0 0.023,0 L 0,0 Z m -0.5,-2.087 1.092,0 0,-10.439 -1.092,0 0,10.439 z" /></g><g
           transform="translate(458.0918,286.0967)"
           id="g64"><path
             id="path66"
             style="fill:#ffffff;fill-opacity:1;fill-rule:nonzero;stroke:none"
             d="m 0,0 c -2.821,0 -5.008,2.112 -5.008,5.372 0,3.565 2.459,5.542 5.168,5.542 3.037,0 5.082,-2.172 5.082,-5.366 C 5.242,1.672 2.441,0 0.023,0 L 0,0 Z m 0.074,0.868 c 2.275,0 4.074,1.957 4.074,4.632 0,1.911 -1.115,4.546 -4.011,4.546 -2.8,0 -4.049,-2.371 -4.049,-4.609 0,-2.612 1.726,-4.569 3.963,-4.569 l 0.023,0 z" /></g><g
           transform="translate(466.1211,294.2695)"
           id="g68"><path
             id="path70"
             style="fill:#ffffff;fill-opacity:1;fill-rule:nonzero;stroke:none"
             d="m 0,0 c 0,0.963 -0.029,1.678 -0.098,2.504 l 1.024,0 0.072,-1.874 0.051,0 c 0.586,1.178 1.976,2.111 3.754,2.111 1.048,0 3.829,-0.493 3.829,-4.412 l 0,-6.265 -1.097,0 0,6.179 C 7.535,0.155 6.762,1.874 4.508,1.874 2.982,1.874 1.656,0.83 1.225,-0.539 1.16,-0.779 1.092,-1.131 1.092,-1.453 l 0,-6.483 L 0,-7.936 0,0 Z" /></g><g
           transform="translate(335.334,342.6187)"
           id="g72"><path
             id="path74"
             style="fill:#dede2e;fill-opacity:1;fill-rule:nonzero;stroke:none"
             d="m 0,0 1.285,-0.392 0.424,-0.126 c 0.074,-0.046 0.135,0.01 0.198,0.049 l 0.189,0.116 0.519,0.311 c 0.242,0.14 0.489,0.27 0.735,0.39 0.496,0.239 0.994,0.441 1.492,0.61 0.498,0.164 0.99,0.293 1.47,0.394 0.242,0.042 0.477,0.092 0.711,0.121 l 0.346,0.046 0.204,0.02 C 8.527,1.635 9.301,1.603 9.744,1.566 12.058,1.352 13.44,1.25 15.536,1.211 13.708,2.224 12.404,2.885 9.867,3.147 9.365,3.192 8.496,3.232 7.418,3.126 L 7.187,3.104 6.799,3.052 C 6.533,3.02 6.268,2.965 5.994,2.917 5.453,2.803 4.896,2.658 4.334,2.473 3.774,2.283 3.21,2.054 2.65,1.784 2.371,1.648 2.095,1.501 1.82,1.344 L 1.566,1.195 C 1.566,1.191 1.56,1.193 1.553,1.196 l -1.076,0.327 -1.17,0.378 c -0.778,0.261 -1.553,0.532 -2.27,0.852 -1.439,0.64 -2.787,1.511 -4.004,2.385 -1.215,0.88 -2.301,1.778 -3.221,2.589 l -0.86,0.778 c -0.003,0.012 -0.015,-0.004 0.025,0.028 0.8,0.575 1.298,0.869 1.295,0.871 0.002,-0.006 0.705,0.465 1.949,1.098 1.244,0.626 3.051,1.412 5.211,1.832 2.148,0.434 4.66,0.406 6.949,-0.397 2.332,-0.839 4.582,-2.013 6.262,-3.352 1.218,-0.954 2.021,-1.923 2.386,-2.418 0.678,-0.911 1.129,-1.667 1.534,-2.42 0.392,-0.759 0.775,-1.511 0.973,-2.536 0.312,1.01 0.306,1.965 0.126,2.915 -0.189,0.952 -0.591,1.932 -1.357,2.984 -0.414,0.573 -1.329,1.676 -2.67,2.727 -1.869,1.48 -4.226,2.706 -6.733,3.608 -2.592,0.911 -5.423,0.93 -7.773,0.452 -2.367,-0.462 -4.299,-1.31 -5.623,-1.978 -1.328,-0.676 -2.072,-1.176 -2.074,-1.171 0,-0.004 -0.525,-0.313 -1.385,-0.93 -0.281,-0.205 -0.656,-0.485 -0.983,-0.765 -0.156,-0.143 -0.367,-0.285 -0.498,-0.442 l 0.526,-0.522 c 0.904,-0.883 1.166,-1.103 1.668,-1.553 0.951,-0.84 2.068,-1.768 3.34,-2.689 C -6.628,2.932 -5.211,2.009 -3.61,1.294 -2.809,0.937 -2,0.656 -1.197,0.386 L 0,0 Z" /></g><g
           transform="translate(362.0439,351.1499)"
           id="g76"><path
             id="path78"
             style="fill:#dede2e;fill-opacity:1;fill-rule:nonzero;stroke:none"
             d="m 0,0 -0.001,-0.002 -0.002,-0.005 -0.008,-0.017 c -0.006,-0.003 -0.01,0.006 -0.01,0.006 C 0.124,0.088 0.202,0.143 0,0 m 12.712,-19.219 c -0.371,1.873 -1.045,3.692 -2.052,5.273 -0.532,0.845 -1.168,1.606 -1.862,2.282 l 0.004,0.008 c -0.1,0.091 -0.198,0.169 -0.297,0.255 -0.525,0.481 -1.073,0.926 -1.654,1.299 -0.25,0.163 -0.507,0.299 -0.764,0.439 C 6.04,-9.636 5.994,-9.609 5.949,-9.583 5.833,-9.522 5.718,-9.458 5.601,-9.401 4.15,-8.649 2.93,-8.35 2.173,-8.234 l -0.014,0.015 c 0,0 -5.294,0.761 -8.972,-0.495 l 6.962,7.742 c 0.139,0.14 0.241,0.204 0.447,0.478 0.021,0.032 0.069,0.104 0.112,0.215 0.059,0.143 0.053,0.37 0.016,0.474 l -0.004,0.014 0,0.004 -0.096,0.2 -0.006,0.008 -0.086,0.12 C 0.476,0.621 0.412,0.695 0.348,0.766 0.222,0.91 0.084,1.037 -0.056,1.145 -0.334,1.364 -0.618,1.506 -0.857,1.599 -1.339,1.781 -1.638,1.795 -1.635,1.801 -1.634,1.799 -1.968,1.865 -2.487,1.841 -2.747,1.829 -3.05,1.796 -3.38,1.727 -3.544,1.694 -3.714,1.651 -3.889,1.601 L -4.155,1.518 C -4.259,1.481 -4.298,1.472 -4.489,1.395 -4.644,1.312 -4.86,1.294 -4.927,1.098 L -5.15,0.73 -5.452,0.229 -6.067,-0.793 -7.181,-2.677 -8.301,-4.615 c -1.077,-1.915 -1.489,-3.136 -1.888,-4.987 1.213,1.441 2.036,2.382 3.126,4.277 l 1.121,1.922 2.093,3.509 0.15,0.053 0.21,0.066 c 0.138,0.041 0.273,0.075 0.401,0.101 0.254,0.054 0.483,0.078 0.667,0.087 0.373,0.018 0.578,-0.025 0.578,-0.023 -0.002,-0.004 0.196,-0.017 0.467,-0.122 0.026,-0.011 0.055,-0.026 0.08,-0.039 l -2.17,-2.667 c -0.012,-0.012 -0.024,-0.025 -0.035,-0.037 -1.031,-1.078 -1.8,-2.026 -2.178,-2.514 -0.3,-0.399 -0.55,-0.766 -0.774,-1.121 l -0.011,-0.014 -0.533,-0.709 -3.192,-4.237 c 0,0 2.289,1.417 6.418,1.563 2.265,-0.027 5.005,-0.309 7.469,-1.247 0.052,-0.02 0.104,-0.032 0.155,-0.052 0.05,-0.02 0.101,-0.048 0.152,-0.068 0.264,-0.107 0.524,-0.221 0.779,-0.344 0.016,-0.008 0.031,-0.013 0.046,-0.021 1.862,-0.911 3.479,-2.273 4.471,-4.282 0,0 0.05,-0.111 0.13,-0.304 0.609,-1.153 1.054,-2.432 1.322,-3.779 0.316,-1.674 0.418,-3.438 0.258,-5.166 -0.16,-1.736 -0.559,-3.463 -1.123,-5.117 -1.135,-3.309 -2.906,-6.335 -4.908,-8.779 -1.004,-1.217 -2.073,-2.3 -3.169,-3.14 -0.55,-0.42 -1.097,-0.774 -1.649,-1.033 -0.616,-0.294 -1.208,-0.569 -1.77,-0.795 -1.131,-0.458 -2.184,-0.762 -3.081,-0.865 -0.908,-0.107 -1.609,-0.002 -2.242,0.186 -0.314,0.09 -0.636,0.203 -0.982,0.286 -0.328,0.087 -0.797,0.113 -1.049,0.071 -0.512,-0.066 -0.693,-0.131 -0.701,-0.127 -0.025,0.026 -0.822,-0.285 -2.063,-0.344 -1.269,-0.061 -3.165,0.38 -5.408,1.508 -2.074,0.949 -4.197,3.085 -6.05,5.635 -1.846,2.573 -3.454,5.685 -4.349,9.058 -0.446,1.684 -0.704,3.431 -0.698,5.166 0.009,1.742 0.248,3.489 0.753,5.095 0.394,1.251 0.969,2.413 1.692,3.431 0.193,0.282 0.32,0.438 0.32,0.438 0.121,0.188 0.258,0.365 0.399,0.538 l -0.003,0.004 c 0,0 4.01,5.845 14.76,3.939 -1.211,0.503 -2.252,0.874 -3.382,1.139 -1.132,0.256 -2.35,0.435 -3.955,0.371 -0.86,-0.033 -2.705,-0.197 -4.702,-1.101 l -0.519,-0.248 -0.586,-0.316 c -0.386,-0.226 -0.769,-0.466 -1.135,-0.738 -0.736,-0.537 -1.429,-1.163 -2.047,-1.872 -1.238,-1.417 -2.169,-3.146 -2.744,-4.982 -1.15,-3.673 -1.076,-7.721 -0.082,-11.373 0.977,-3.661 2.688,-6.959 4.662,-9.712 2,-2.724 4.223,-5.048 6.824,-6.271 2.33,-1.174 4.633,-1.776 6.309,-1.691 0.833,0.026 1.471,0.167 1.869,0.257 l 0.581,0.138 c -0.006,-0.004 0.208,0.056 0.472,0.088 0.133,0.013 0.152,0.015 0.378,-0.031 0.206,-0.048 0.503,-0.15 0.889,-0.262 0.768,-0.239 1.872,-0.399 3.016,-0.251 1.15,0.133 2.357,0.494 3.596,0.994 0.626,0.25 1.25,0.541 1.885,0.844 0.705,0.332 1.369,0.767 2,1.246 1.26,0.966 2.414,2.144 3.5,3.456 2.152,2.631 4.027,5.83 5.255,9.399 0.61,1.783 1.047,3.661 1.225,5.58 0.176,1.927 0.068,3.858 -0.287,5.732" /></g><g
           transform="translate(413.0947,321.3291)"
           id="g80"><path
             id="path82"
             style="fill:#ffffff;fill-opacity:1;fill-rule:nonzero;stroke:none"
             d="M 0,0 C -0.079,0.902 -0.327,1.756 -0.741,2.544 -1.24,3.503 -1.93,4.358 -2.79,5.086 -3.644,5.807 -4.651,6.38 -5.791,6.789 c -2.282,0.817 -4.999,0.817 -7.274,0 -1.141,-0.411 -2.147,-0.985 -2.983,-1.706 -0.306,-0.261 -0.584,-0.547 -0.848,-0.843 -0.265,0.297 -0.546,0.583 -0.859,0.846 -0.851,0.72 -1.861,1.293 -3,1.703 -2.276,0.816 -4.993,0.817 -7.273,0 -0.698,-0.251 -1.338,-0.57 -1.926,-0.939 -0.008,0.262 -0.074,0.49 -0.212,0.681 -0.511,0.676 -2.156,1.436 -2.728,1.436 -0.498,0 -0.919,-0.414 -0.919,-0.905 l 0,-11.006 0.017,0 -0.017,-10.523 c 0,-0.281 0.078,-0.514 0.234,-0.694 0.538,-0.63 2.195,-1.265 2.705,-1.265 0.501,0 0.924,0.393 0.924,0.858 l 0,11.702 0,3.283 c 0.004,0.605 0.143,1.187 0.414,1.73 0.282,0.559 0.672,1.047 1.16,1.451 0.504,0.415 1.104,0.754 1.783,1.007 1.343,0.498 2.975,0.513 4.385,-10e-4 0.693,-0.254 1.297,-0.592 1.796,-1.006 0.493,-0.407 0.893,-0.898 1.188,-1.455 0.246,-0.477 0.368,-0.987 0.399,-1.513 l -0.025,-14.097 c 0,-0.279 0.079,-0.512 0.234,-0.695 0.539,-0.63 2.198,-1.264 2.708,-1.264 0,0 0.012,0.004 0.019,0.004 0.009,0 0.023,-0.004 0.033,-0.004 0.499,0 0.92,0.393 0.92,0.858 l 0,15.06 -0.002,0.312 c 0.048,0.467 0.156,0.922 0.367,1.344 0.275,0.555 0.668,1.042 1.158,1.449 0.506,0.416 1.105,0.755 1.781,1.008 1.347,0.498 2.979,0.513 4.387,-10e-4 0.699,-0.255 1.301,-0.594 1.799,-1.006 0.493,-0.408 0.891,-0.899 1.185,-1.457 0.28,-0.538 0.424,-1.117 0.426,-1.718 l 0,-13.89 c 0,-0.277 0.08,-0.511 0.234,-0.694 0.539,-0.63 2.199,-1.265 2.709,-1.265 0.498,0 0.92,0.393 0.92,0.858 l 0,15.06 L 0.025,0 0,0 Z" /></g><g
           transform="translate(444.5703,338.9932)"
           id="g84"><path
             id="path86"
             style="fill:#ffffff;fill-opacity:1;fill-rule:nonzero;stroke:none"
             d="m 0,0 c -0.5,0 -0.922,-0.414 -0.922,-0.904 l 0.002,-31.03 c 0,-0.293 0.07,-0.528 0.214,-0.719 0.511,-0.676 2.155,-1.437 2.727,-1.437 0.499,0 0.922,0.415 0.922,0.905 l 0,31.03 c 0,0.28 -0.07,0.519 -0.216,0.719 C 2.217,-0.761 0.57,0 0,0" /></g><g
           transform="translate(420.9961,319.4687)"
           id="g88"><path
             id="path90"
             style="fill:#ffffff;fill-opacity:1;fill-rule:nonzero;stroke:none"
             d="m 0,0 c 0.53,1.563 1.26,2.765 2.17,3.579 l 0,0 c 1.422,1.271 3.146,1.915 5.128,1.915 1.203,0 2.368,-0.258 3.462,-0.766 1.087,-0.507 1.972,-1.18 2.629,-2 C 13.947,2.03 14.399,1.115 14.736,0 L 0,0 Z M 18.971,-2.905 C 18.942,0.147 18.104,2.736 16.478,4.789 14.187,7.696 11.085,9.17 7.258,9.17 3.533,9.17 0.519,7.729 -1.704,4.887 -3.449,2.662 -4.335,0.092 -4.335,-2.75 c 0,-3.023 1.045,-5.77 3.103,-8.162 2.079,-2.416 4.986,-3.64 8.649,-3.64 1.644,0 3.142,0.255 4.452,0.758 1.038,0.398 1.999,0.952 2.879,1.642 0.876,0.655 1.794,1.483 2.473,2.692 l 0.695,0.853 c 0.149,0.18 0.219,0.413 0.194,0.654 -0.025,0.243 -0.139,0.465 -0.319,0.61 -0.423,0.344 -2.113,0.755 -2.904,0.54 -0.223,-0.059 -0.424,-0.2 -0.597,-0.415 L 13.4,-8.304 c -0.238,-0.26 -0.466,-0.488 -0.69,-0.702 l -0.002,0.003 c -0.681,-0.591 -1.52,-1.072 -2.495,-1.43 -0.979,-0.36 -1.999,-0.543 -3.034,-0.543 -2.155,0 -3.914,0.737 -5.376,2.251 -1.345,1.391 -2.1,3.174 -2.24,5.308 l 19.413,0 -0.005,0.512 z" /></g><g
           transform="translate(471.0234,316.5737)"
           id="g92"><path
             id="path94"
             style="fill:#ffffff;fill-opacity:1;fill-rule:nonzero;stroke:none"
             d="m 0,0 c -0.015,-1.504 -0.357,-2.877 -1.031,-4.078 -0.684,-1.22 -1.676,-2.202 -2.948,-2.918 -2.541,-1.43 -5.575,-1.45 -8.048,0.006 -1.231,0.723 -2.226,1.75 -2.957,3.052 -0.733,1.304 -1.104,2.688 -1.104,4.112 0,1.438 0.368,2.822 1.094,4.112 0.726,1.289 1.714,2.303 2.935,3.012 1.224,0.711 2.579,1.071 4.028,1.071 2.284,0 4.152,-0.773 5.713,-2.365 C -0.785,4.44 -0.029,2.547 0,0.228 L 0,0 Z m 3.646,10.699 c -0.509,0.675 -2.156,1.436 -2.726,1.436 -0.499,0 -0.921,-0.415 -0.921,-0.906 l 0,-2.965 c -0.956,1.109 -2.028,1.99 -3.21,2.611 -1.502,0.79 -3.201,1.19 -5.049,1.19 -3.197,0 -5.969,-1.166 -8.241,-3.465 -2.27,-2.299 -3.421,-5.103 -3.421,-8.336 0,-3.299 1.14,-6.139 3.39,-8.443 2.251,-2.308 5.009,-3.478 8.192,-3.478 1.791,0 3.465,0.378 4.979,1.124 1.215,0.599 2.338,1.45 3.361,2.521 l 0,-1.625 c 0,-0.294 0.07,-0.529 0.215,-0.72 0.51,-0.675 2.154,-1.436 2.724,-1.436 0.502,0 0.924,0.414 0.924,0.905 l 0,19.867 c 0,0.28 -0.07,1.519 -0.217,1.72" /></g><g
           transform="translate(330.0801,340.9297)"
           id="g96"><path
             id="path98"
             style="fill:#dede2e;fill-opacity:1;fill-rule:nonzero;stroke:none"
             d="m 0,0 0,-0.952 0.79,0 c 0.239,0 0.401,0.027 0.485,0.082 0.125,0.078 0.19,0.211 0.19,0.398 0,0.163 -0.045,0.283 -0.136,0.359 C 1.24,-0.038 1.07,0 0.82,0 L 0,0 Z m -0.507,0.462 1.338,0 C 1.146,0.462 1.369,0.431 1.508,0.368 1.645,0.305 1.756,0.203 1.842,0.06 1.93,-0.082 1.971,-0.248 1.971,-0.437 1.971,-0.601 1.941,-0.742 1.88,-0.861 1.832,-0.949 1.73,-1.044 1.57,-1.148 1.715,-1.22 1.812,-1.302 1.861,-1.396 1.912,-1.49 1.936,-1.65 1.936,-1.877 l 0,-0.363 c 0,-0.171 0.039,-0.314 0.115,-0.427 l 0.053,-0.085 -0.569,0 c -0.037,0.133 -0.062,0.29 -0.077,0.474 l -0.026,0.395 c -0.01,0.144 -0.034,0.246 -0.069,0.306 -0.037,0.059 -0.09,0.102 -0.156,0.128 -0.066,0.026 -0.201,0.039 -0.402,0.039 l -0.805,0 0,-1.342 -0.507,0 0,3.214 z M 3.055,-1.166 C 3.055,-0.74 2.947,-0.339 2.73,0.037 2.518,0.413 2.225,0.708 1.854,0.924 1.486,1.14 1.086,1.247 0.661,1.247 0.232,1.247 -0.168,1.14 -0.543,0.924 -0.92,0.708 -1.215,0.413 -1.43,0.037 c -0.213,-0.376 -0.32,-0.78 -0.32,-1.21 0,-0.43 0.107,-0.829 0.32,-1.202 0.215,-0.372 0.512,-0.666 0.887,-0.881 0.377,-0.216 0.779,-0.324 1.204,-0.324 0.425,0 0.821,0.108 1.193,0.325 0.373,0.217 0.666,0.511 0.88,0.881 0.213,0.372 0.321,0.774 0.321,1.208 m 0.386,0.003 C 3.441,-1.665 3.318,-2.131 3.07,-2.562 2.82,-2.992 2.48,-3.333 2.047,-3.583 1.613,-3.834 1.148,-3.96 0.654,-3.96 c -0.495,0 -0.959,0.125 -1.392,0.375 -0.434,0.25 -0.776,0.59 -1.024,1.022 -0.25,0.431 -0.375,0.893 -0.375,1.386 0,0.497 0.125,0.964 0.375,1.4 0.248,0.436 0.59,0.779 1.023,1.027 0.431,0.249 0.895,0.374 1.393,0.374 0.498,0 0.961,-0.124 1.391,-0.372 0.43,-0.248 0.769,-0.589 1.021,-1.025 0.25,-0.436 0.375,-0.899 0.375,-1.39" /></g></g></g></g></svg>