<?xml version="1.0" encoding="iso-8859-1"?>
<!-- Generator: Adobe Illustrator 17.0.0, SVG Export Plug-In . SVG Version: 6.00 Build 0)  -->
<!DOCTYPE svg PUBLIC "-//W3C//DTD SVG 1.1//EN" "http://www.w3.org/Graphics/SVG/1.1/DTD/svg11.dtd">
<svg version="1.1" id="Layer_1" xmlns="http://www.w3.org/2000/svg" xmlns:xlink="http://www.w3.org/1999/xlink" x="0px" y="0px"
	 width="500px" height="500px" viewBox="0 0 500 500" enable-background="new 0 0 500 500" xml:space="preserve">
<g>
	<path fill="#FFFFFF" d="M282.204,123.622l125.595,126.193L282.317,375.881l-51.582-51.56
		c12.506-22.549,19.143-48.027,19.125-74.533c-0.018-26.498-6.686-51.972-19.215-74.519L282.204,123.622 M282.223,73.361
		c-6.188,0-12.376,2.39-17.157,7.171l-90.42,90.575c43.47,43.47,43.548,113.95,0.078,157.42l90.614,90.575
		c4.781,4.781,10.896,7.171,17.011,7.171s12.231-2.391,17.011-7.171l168.502-169.285L299.38,80.532
		C294.6,75.751,288.411,73.361,282.223,73.361L282.223,73.361z"/>
	<path fill="#FFFFFF" d="M105.897,322.287c-19.518,0-37.867-7.6-51.668-21.399c-28.488-28.492-28.488-74.847-0.001-103.336
		c13.803-13.803,32.152-21.402,51.669-21.402c19.516,0,37.865,7.6,51.667,21.399c28.488,28.492,28.488,74.847,0,103.336
		C143.763,314.687,125.413,322.287,105.897,322.287z M105.897,218.721c-8.147,0-15.805,3.173-21.566,8.933
		c-11.89,11.89-11.89,31.239,0.001,43.131c5.759,5.757,13.417,8.93,21.564,8.93c8.146,0,15.804-3.173,21.564-8.933
		c11.89-11.89,11.89-31.239-0.001-43.131C121.701,221.894,114.043,218.721,105.897,218.721z"/>
	<circle fill="#FFFFFF" cx="321.288" cy="249.218" r="23.673"/>
</g>
</svg>
