<?xml version="1.0" encoding="iso-8859-1"?>
<!-- Generator: Adobe Illustrator 17.0.0, SVG Export Plug-In . SVG Version: 6.00 Build 0)  -->
<!DOCTYPE svg PUBLIC "-//W3C//DTD SVG 1.1//EN" "http://www.w3.org/Graphics/SVG/1.1/DTD/svg11.dtd">
<svg version="1.1" id="Layer_1" xmlns="http://www.w3.org/2000/svg" xmlns:xlink="http://www.w3.org/1999/xlink" x="0px" y="0px"
	 width="1039.916px" height="259px" viewBox="0 0 1039.916 259" enable-background="new 0 0 1039.916 259" xml:space="preserve">
<g>
	<path fill="#333333" d="M316.817,194.223v-134.3h37.173c15.433,0,28.532,5.535,39.293,16.603
		c10.76,11.069,16.142,25.182,16.142,42.338v16.418c0,17.218-5.382,31.346-16.142,42.383c-10.762,11.038-23.86,16.558-39.293,16.558
		H316.817z M321.798,64.904v124.338h32.192c13.958,0,25.856-5.103,35.696-15.311c9.838-10.206,14.758-23.09,14.758-38.648v-16.695
		c0-15.373-4.919-28.164-14.758-38.372c-9.84-10.206-21.738-15.311-35.696-15.311H321.798z"/>
	<path fill="#333333" d="M535.517,137.127c0,18.141-4.489,32.514-13.468,43.122c-8.979,10.607-21.338,15.911-37.079,15.911
		c-15.806,0-28.212-5.304-37.22-15.911c-9.01-10.609-13.513-24.981-13.513-43.122v-20.108c0-18.079,4.474-32.436,13.422-43.076
		c8.946-10.638,21.321-15.958,37.125-15.958c15.741,0,28.133,5.32,37.173,15.958c9.039,10.639,13.559,24.997,13.559,43.076V137.127z
		 M530.536,116.835c0-16.48-3.967-29.577-11.9-39.295c-7.932-9.715-19.216-14.574-33.851-14.574
		c-14.574,0-25.796,4.859-33.667,14.574c-7.871,9.718-11.805,22.815-11.805,39.295v20.292c0,16.603,3.95,29.763,11.852,39.479
		c7.901,9.716,19.17,14.574,33.807,14.574c14.634,0,25.887-4.843,33.759-14.529c7.871-9.685,11.807-22.859,11.807-39.524V116.835z"
		/>
	<path fill="#333333" d="M645.566,64.904h-48.887v129.319h-4.981V64.904h-48.886v-4.981h102.754V64.904z"/>
	<path fill="#333333" d="M733.4,159.623c0-5.572-2.075-10.132-6.226-13.683c-4.151-3.552-11.484-6.735-22-9.551
		c-15.005-3.936-26.551-9.147-34.635-15.634c-8.088-6.487-12.13-14.99-12.13-25.505c0-10.822,4.474-19.739,13.422-26.749
		c8.948-7.01,20.492-10.516,34.635-10.516c14.759,0,26.611,3.982,35.559,11.945c8.948,7.964,13.267,17.512,12.959,28.642
		l-0.184,0.552h-21.492c0-6.885-2.337-12.466-7.01-16.74c-4.673-4.274-11.345-6.412-20.016-6.412c-8.179,0-14.467,1.78-18.863,5.338
		c-4.396,3.56-6.596,8.161-6.596,13.805c0,5.092,2.383,9.327,7.149,12.701c4.765,3.376,12.651,6.565,23.659,9.571
		c14.45,3.875,25.427,9.224,32.93,16.05c7.502,6.826,11.253,15.528,11.253,26.104c0,11.193-4.474,20.094-13.422,26.704
		c-8.946,6.611-20.707,9.916-35.28,9.916c-14.021,0-26.32-3.736-36.896-11.207c-10.578-7.472-15.712-17.665-15.404-30.578
		l0.184-0.554h21.585c0,8.179,2.827,14.283,8.485,18.31c5.657,4.028,13.006,6.042,22.046,6.042c8.301,0,14.758-1.669,19.369-5.004
		C731.095,169.833,733.4,165.317,733.4,159.623z"/>
	<path fill="#333333" d="M884.121,139.156c0,8.301-1.417,16.02-4.243,23.152c-2.83,7.135-6.826,13.282-11.991,18.449l22.321,21.676
		l-14.943,13.374l-24.72-23.613c-3.32,1.353-6.826,2.352-10.514,2.997c-3.69,0.646-7.503,0.97-11.439,0.97
		c-16.111,0-29.194-5.397-39.247-16.188c-10.055-10.793-15.081-24.398-15.081-40.817V114.99c0-16.357,5.026-29.947,15.081-40.77
		c10.053-10.822,23.105-16.234,39.156-16.234c16.418,0,29.794,5.413,40.124,16.234c10.33,10.823,15.497,24.414,15.497,40.77V139.156
		z M861.798,114.804c0-11.19-2.997-20.384-8.992-27.579c-5.996-7.194-14.099-10.793-24.305-10.793
		c-9.84,0-17.619,3.599-23.337,10.793c-5.719,7.196-8.578,16.389-8.578,27.579v24.352c0,11.315,2.859,20.585,8.578,27.81
		c5.719,7.226,13.528,10.839,23.428,10.839c10.27,0,18.37-3.597,24.305-10.793c5.934-7.194,8.901-16.479,8.901-27.856V114.804z"/>
	<path fill="#333333" d="M932.269,138.511v55.712h-22.414v-134.3h49.625c15.002,0,26.594,3.382,34.773,10.146
		c8.178,6.766,12.268,16.419,12.268,28.963c0,6.95-1.799,12.93-5.396,17.94c-3.597,5.014-8.841,9.025-15.727,12.037
		c7.564,2.399,13.006,6.319,16.327,11.761c3.32,5.442,4.981,12.129,4.981,20.062v11.161c0,3.936,0.49,7.78,1.475,11.53
		c0.984,3.752,2.643,6.611,4.981,8.578v2.122h-23.06c-2.46-2.029-4.044-5.225-4.751-9.593c-0.707-4.366-1.061-8.638-1.061-12.821
		v-10.793c0-6.886-1.969-12.359-5.903-16.419c-3.936-4.058-9.348-6.087-16.234-6.087H932.269z M932.269,120.523h26.011
		c8.977,0,15.526-1.72,19.647-5.165c4.118-3.442,6.18-8.7,6.18-15.772c0-6.764-2.029-12.068-6.087-15.911
		c-4.059-3.843-10.239-5.765-18.54-5.765h-27.211V120.523z"/>
	<path fill="#333333" d="M167.045,57.405l70.077,70.411l-70.014,70.339l-28.781-28.768c6.978-12.582,10.681-26.797,10.671-41.586
		c-0.01-14.785-3.73-28.998-10.721-41.578L167.045,57.405 M167.056,29.362c-3.453,0-6.905,1.334-9.573,4.001L107.032,83.9
		c24.255,24.255,24.298,63.579,0.044,87.834l50.559,50.537c2.667,2.667,6.079,4.001,9.492,4.001c3.412,0,6.824-1.334,9.492-4.001
		l94.018-94.454l-94.007-94.454C173.961,30.695,170.509,29.362,167.056,29.362L167.056,29.362z"/>
	<path fill="#333333" d="M68.673,168.252c-10.89,0-21.128-4.24-28.829-11.94c-15.895-15.897-15.895-41.761-0.001-57.657
		c7.701-7.701,17.939-11.942,28.829-11.942c10.889,0,21.127,4.24,28.828,11.94c15.895,15.897,15.895,41.761,0,57.657
		C89.801,164.012,79.562,168.252,68.673,168.252z M68.673,110.467c-4.546,0-8.819,1.771-12.033,4.984
		c-6.634,6.634-6.634,17.43,0.001,24.066c3.213,3.212,7.486,4.983,12.032,4.983c4.545,0,8.818-1.771,12.032-4.984
		c6.634-6.634,6.634-17.43-0.001-24.066C77.491,112.237,73.218,110.467,68.673,110.467z"/>
	<circle fill="#333333" cx="188.853" cy="127.483" r="13.209"/>
</g>
</svg>
